HIERARCHY
ROOT Hips
{
	OFFSET 0.000000 83.214638 0.000000
	CHANNELS 6 Xposition Yposition Zposition Xrotation Yrotation Zrotation
	JOINT Pelvis
	{
		OFFSET 0.000000 0.000000 0.000000
		CHANNELS 3 Xrotation Yrotation Zrotation
		JOINT LeftUpLeg
		{
			OFFSET 8.479700 -4.795502 -0.379100
			CHANNELS 3 Xrotation Yrotation Zrotation
			JOINT LeftLeg
			{
				OFFSET 0.024144 -32.555107 0.112900
				CHANNELS 3 Xrotation Yrotation Zrotation
				JOINT LeftFoot
				{
					OFFSET -0.024144 -32.638630 -3.012600
					CHANNELS 3 Xrotation Yrotation Zrotation
					JOINT LeftToeBase
					{
						OFFSET 0.970200 -13.225400 11.864200
						CHANNELS 3 Xrotation Yrotation Zrotation
						End Site
						{
							OFFSET 0.000000 12.319262 0.000000
						}
					}
					JOINT LFootTongue
					{
						OFFSET 1.142400 -1.059800 6.665200
						CHANNELS 3 Xrotation Yrotation Zrotation
						End Site
						{
							OFFSET 0.000000 12.319262 0.000000
						}
					}
				}
				JOINT LeftPantLeg
				{
					OFFSET 0.918482 -16.533964 -2.284700
					CHANNELS 3 Xrotation Yrotation Zrotation
					End Site
					{
						OFFSET 0.350399 24.744368 0.000000
					}
				}
			}
		}
		JOINT RightUpLeg
		{
			OFFSET -8.479700 -4.795502 -0.379100
			CHANNELS 3 Xrotation Yrotation Zrotation
			JOINT RightLeg
			{
				OFFSET -0.023144 -32.555092 0.112900
				CHANNELS 3 Xrotation Yrotation Zrotation
				JOINT RightFoot
				{
					OFFSET 0.023144 -32.638641 -3.012700
					CHANNELS 3 Xrotation Yrotation Zrotation
					JOINT RightToeBase
					{
						OFFSET -0.970200 -13.225400 11.864200
						CHANNELS 3 Xrotation Yrotation Zrotation
						End Site
						{
							OFFSET 0.000000 12.319244 0.000000
						}
					}
					JOINT RFootTongue
					{
						OFFSET -1.142200 -1.059800 6.665200
						CHANNELS 3 Xrotation Yrotation Zrotation
						End Site
						{
							OFFSET 0.000000 12.319243 0.000000
						}
					}
				}
				JOINT RightPantLeg
				{
					OFFSET -0.919482 -16.533978 -2.284800
					CHANNELS 3 Xrotation Yrotation Zrotation
					End Site
					{
						OFFSET -0.350400 24.744419 0.000000
					}
				}
			}
		}
	}
	JOINT Spine
	{
		OFFSET 0.000000 7.722000 1.166200
		CHANNELS 3 Xrotation Yrotation Zrotation
		JOINT Spine1
		{
			OFFSET 0.000000 12.024101 0.248800
			CHANNELS 3 Xrotation Yrotation Zrotation
			JOINT Spine2
			{
				OFFSET 0.000000 11.502998 -0.491200
				CHANNELS 3 Xrotation Yrotation Zrotation
				JOINT Neck
				{
					OFFSET 0.000000 18.430702 -3.123100
					CHANNELS 3 Xrotation Yrotation Zrotation
					JOINT Head
					{
						OFFSET 0.000000 9.051102 1.034000
						CHANNELS 3 Xrotation Yrotation Zrotation
						JOINT HairB
						{
							OFFSET 0.208400 24.786102 24.822300
							CHANNELS 3 Xrotation Yrotation Zrotation
							End Site
							{
								OFFSET 0.000000 32.263779 0.000000
							}
						}
						JOINT HairA
						{
							OFFSET -7.081100 24.428299 23.196600
							CHANNELS 3 Xrotation Yrotation Zrotation
							End Site
							{
								OFFSET 0.000000 32.263779 0.000000
							}
						}
						JOINT Hat
						{
							OFFSET 16.728800 15.048294 -15.439601
							CHANNELS 3 Xrotation Yrotation Zrotation
							End Site
							{
								OFFSET 0.000000 32.263779 0.000000
							}
						}
					}
				}
				JOINT LeftShoulder
				{
					OFFSET 6.197800 13.665199 -4.064700
					CHANNELS 3 Xrotation Yrotation Zrotation
					JOINT LeftArm
					{
						OFFSET 7.778100 -0.187103 -1.709300
						CHANNELS 3 Xrotation Yrotation Zrotation
						JOINT LeftForeArm
						{
							OFFSET 22.049376 0.000000 0.000000
							CHANNELS 3 Xrotation Yrotation Zrotation
							JOINT LeftHand
							{
								OFFSET 23.009392 0.000000 0.000000
								CHANNELS 3 Xrotation Yrotation Zrotation
								JOINT LeftHandThumb1
								{
									OFFSET 3.507191 -2.063065 3.133727
									CHANNELS 3 Xrotation Yrotation Zrotation
									JOINT LeftHandThumb2
									{
										OFFSET 3.101337 -1.790558 1.790558
										CHANNELS 3 Xrotation Yrotation Zrotation
										JOINT LeftHandThumb3
										{
											OFFSET 3.058640 -1.765907 1.765906
											CHANNELS 3 Xrotation Yrotation Zrotation
											End Site
											{
												OFFSET -0.415260 3.926476 -0.049563
											}
										}
									}
								}
								JOINT LeftHandIndex1
								{
									OFFSET 11.334419 -0.901459 3.706815
									CHANNELS 3 Xrotation Yrotation Zrotation
									JOINT LeftHandIndex2
									{
										OFFSET 3.283112 0.000000 0.000000
										CHANNELS 3 Xrotation Yrotation Zrotation
										JOINT LeftHandIndex3
										{
											OFFSET 3.323853 0.000000 0.000000
											CHANNELS 3 Xrotation Yrotation Zrotation
											End Site
											{
												OFFSET -1.135597 3.097809 0.402452
											}
										}
									}
								}
								JOINT LeftHandMiddle1
								{
									OFFSET 11.335861 0.000000 0.000000
									CHANNELS 3 Xrotation Yrotation Zrotation
									JOINT LeftHandMiddle2
									{
										OFFSET 3.410492 0.000000 0.000000
										CHANNELS 3 Xrotation Yrotation Zrotation
										JOINT LeftHandMiddle3
										{
											OFFSET 3.312172 0.000000 0.000000
											CHANNELS 3 Xrotation Yrotation Zrotation
											End Site
											{
												OFFSET -1.150200 3.080154 0.400270
											}
										}
									}
								}
								JOINT LeftHandRing1
								{
									OFFSET 11.514786 -0.013176 -3.003090
									CHANNELS 3 Xrotation Yrotation Zrotation
									JOINT LeftHandRing2
									{
										OFFSET 3.053307 0.000000 0.000000
										CHANNELS 3 Xrotation Yrotation Zrotation
										JOINT LeftHandRing3
										{
											OFFSET 3.295807 0.000000 0.000000
											CHANNELS 3 Xrotation Yrotation Zrotation
											End Site
											{
												OFFSET -1.281006 3.013344 0.375733
											}
										}
									}
								}
								JOINT LeftHandPinky1
								{
									OFFSET 10.518692 -0.960396 -5.730441
									CHANNELS 3 Xrotation Yrotation Zrotation
									JOINT LeftHandPinky2
									{
										OFFSET 2.861649 0.000000 0.000000
										CHANNELS 3 Xrotation Yrotation Zrotation
										JOINT LeftHandPinky3
										{
											OFFSET 2.863380 0.000000 0.000000
											CHANNELS 3 Xrotation Yrotation Zrotation
											End Site
											{
												OFFSET -0.843597 2.711159 0.369971
											}
										}
									}
								}
							}
							JOINT LSleeve
							{
								OFFSET 6.676277 -0.344902 -1.011730
								CHANNELS 3 Xrotation Yrotation Zrotation
								End Site
								{
									OFFSET 0.000000 14.885353 0.000000
								}
							}
						}
					}
				}
				JOINT RightShoulder
				{
					OFFSET -6.197800 13.665199 -4.064700
					CHANNELS 3 Xrotation Yrotation Zrotation
					JOINT RightArm
					{
						OFFSET -7.778100 -0.187103 -1.709300
						CHANNELS 3 Xrotation Yrotation Zrotation
						JOINT RightForeArm
						{
							OFFSET -22.049376 0.000000 0.000000
							CHANNELS 3 Xrotation Yrotation Zrotation
							JOINT RightHand
							{
								OFFSET -23.009392 0.000000 0.000000
								CHANNELS 3 Xrotation Yrotation Zrotation
								JOINT RightHandThumb1
								{
									OFFSET -3.507191 -2.063065 3.133727
									CHANNELS 3 Xrotation Yrotation Zrotation
									JOINT RightHandThumb2
									{
										OFFSET -3.101337 -1.790558 1.790558
										CHANNELS 3 Xrotation Yrotation Zrotation
										JOINT RightHandThumb3
										{
											OFFSET -3.058640 -1.765907 1.765906
											CHANNELS 3 Xrotation Yrotation Zrotation
											End Site
											{
												OFFSET 0.415260 3.926476 -0.049563
											}
										}
									}
								}
								JOINT RightHandIndex1
								{
									OFFSET -11.334419 -0.901459 3.706815
									CHANNELS 3 Xrotation Yrotation Zrotation
									JOINT RightHandIndex2
									{
										OFFSET -3.283112 0.000000 0.000000
										CHANNELS 3 Xrotation Yrotation Zrotation
										JOINT RightHandIndex3
										{
											OFFSET -3.323853 0.000000 0.000000
											CHANNELS 3 Xrotation Yrotation Zrotation
											End Site
											{
												OFFSET 1.135597 3.097809 0.402452
											}
										}
									}
								}
								JOINT RightHandMiddle1
								{
									OFFSET -11.335861 0.000000 0.000000
									CHANNELS 3 Xrotation Yrotation Zrotation
									JOINT RightHandMiddle2
									{
										OFFSET -3.410492 0.000000 0.000000
										CHANNELS 3 Xrotation Yrotation Zrotation
										JOINT RightHandMiddle3
										{
											OFFSET -3.312172 0.000000 0.000000
											CHANNELS 3 Xrotation Yrotation Zrotation
											End Site
											{
												OFFSET 1.150200 3.080154 0.400270
											}
										}
									}
								}
								JOINT RightHandRing1
								{
									OFFSET -11.514786 -0.013176 -3.003090
									CHANNELS 3 Xrotation Yrotation Zrotation
									JOINT RightHandRing2
									{
										OFFSET -3.053307 0.000000 0.000000
										CHANNELS 3 Xrotation Yrotation Zrotation
										JOINT RightHandRing3
										{
											OFFSET -3.295807 0.000000 0.000000
											CHANNELS 3 Xrotation Yrotation Zrotation
											End Site
											{
												OFFSET 1.281006 3.013344 0.375733
											}
										}
									}
								}
								JOINT RightHandPinky1
								{
									OFFSET -10.518692 -0.960396 -5.730441
									CHANNELS 3 Xrotation Yrotation Zrotation
									JOINT RightHandPinky2
									{
										OFFSET -2.861649 0.000000 0.000000
										CHANNELS 3 Xrotation Yrotation Zrotation
										JOINT RightHandPinky3
										{
											OFFSET -2.863380 0.000000 0.000000
											CHANNELS 3 Xrotation Yrotation Zrotation
											End Site
											{
												OFFSET 0.843597 2.711159 0.369971
											}
										}
									}
								}
							}
							JOINT RSleeve
							{
								OFFSET -6.676277 -0.344902 -1.011730
								CHANNELS 3 Xrotation Yrotation Zrotation
								End Site
								{
									OFFSET 0.000000 14.885353 0.000000
								}
							}
						}
					}
				}
				JOINT Backpack
				{
					OFFSET 0.000000 -2.471497 36.677502
					CHANNELS 3 Xrotation Yrotation Zrotation
					End Site
					{
						OFFSET 0.000000 20.427315 0.000000
					}
				}
				JOINT Hood
				{
					OFFSET 0.000000 18.754097 -10.431000
					CHANNELS 3 Xrotation Yrotation Zrotation
					JOINT Hood1
					{
						OFFSET 0.000000 -5.011002 -7.685901
						CHANNELS 3 Xrotation Yrotation Zrotation
						End Site
						{
							OFFSET 0.000000 9.175140 0.000000
						}
					}
				}
				JOINT LHoodieString
				{
					OFFSET 5.250500 16.397697 3.089900
					CHANNELS 3 Xrotation Yrotation Zrotation
					JOINT LHoodieString1
					{
						OFFSET 0.257700 -6.364304 3.694600
						CHANNELS 3 Xrotation Yrotation Zrotation
						JOINT LHoodieString2
						{
							OFFSET 0.000000 -9.643799 2.679100
							CHANNELS 3 Xrotation Yrotation Zrotation
							End Site
							{
								OFFSET 0.000000 10.009018 0.000000
							}
						}
					}
				}
				JOINT RHoodieString
				{
					OFFSET -5.250500 16.397697 3.089900
					CHANNELS 3 Xrotation Yrotation Zrotation
					JOINT RHoodieString1
					{
						OFFSET -0.257700 -6.364304 3.694600
						CHANNELS 3 Xrotation Yrotation Zrotation
						JOINT RHoodieString2
						{
							OFFSET 0.000000 -9.643799 2.679100
							CHANNELS 3 Xrotation Yrotation Zrotation
							End Site
							{
								OFFSET 0.000000 10.009018 0.000000
							}
						}
					}
				}
			}
			JOINT LBackpack_Strap
			{
				OFFSET 15.223200 -7.719803 -6.610900
				CHANNELS 3 Xrotation Yrotation Zrotation
				End Site
				{
					OFFSET 0.000000 16.040596 0.000000
				}
			}
			JOINT RBackpack_Strap
			{
				OFFSET -15.223000 -7.719803 -6.610900
				CHANNELS 3 Xrotation Yrotation Zrotation
				End Site
				{
					OFFSET 0.000000 16.040596 0.000000
				}
			}
		}
	}
	JOINT BoyFacialAnim_Joint
	{
		OFFSET 1.000000 -82.208099 -1.550900
		CHANNELS 3 Xrotation Yrotation Zrotation
		End Site
		{
			OFFSET 0.000000 30.012791 0.000000
		}
	}
}
MOTION
Frames: 4
Frame Time: 0.016667
-20.337719 72.322517 -9.472004 35.985125 4.101964 -3.915013 -0.000000 0.000000 -0.000000 -58.172065 -20.412461 23.398876 30.426976 10.290785 -2.838312 3.388132 7.561116 -26.560511 0.000000 0.000002 -0.000000 0.000000 0.000002 -0.000000 -0.000000 0.000000 0.000001 -66.937268 -0.986407 -16.414201 51.052693 -6.586046 -1.098990 -16.247038 -3.278999 17.379094 -0.000000 -0.000000 0.000000 -0.000000 -0.000000 0.000000 -0.000003 -0.000000 -0.000002 11.167601 2.028296 0.778689 9.606827 1.909025 0.899771 9.603332 2.011867 0.811203 -0.524616 -2.137134 -0.972093 -33.188248 -13.301678 4.013186 0.000002 0.000000 -0.000000 0.000002 0.000000 -0.000000 0.000002 0.000000 -0.000000 1.414458 -22.723536 -8.784366 11.762084 -10.125578 -53.585378 0.000007 -69.152237 -0.000011 9.634472 -7.078038 51.536485 -3.236115 1.418153 8.402913 5.654945 12.269280 1.647793 -0.000000 -0.000001 -0.000001 -2.869256 -11.236239 -14.304764 0.189442 1.607180 -13.444112 -0.000004 0.000001 -0.000005 -1.015597 -2.322574 -17.138015 0.372023 2.236742 -18.883776 0.000000 -0.000003 0.000001 0.425058 2.386066 -20.199026 0.525202 2.642136 -22.481663 -0.000002 -0.000002 -0.000001 2.908296 9.324880 -19.277237 0.542567 -1.387833 -23.214312 0.000001 0.000001 -0.000002 0.000001 0.000001 0.000001 3.076682 26.719388 7.630342 -0.858331 44.777907 17.984933 -0.000007 15.067922 0.000006 -12.088580 -18.720850 2.445789 11.401660 -6.367860 -1.590885 -8.836341 -28.068816 -6.744435 0.000001 0.000003 0.000001 1.584811 -10.189931 8.836249 0.110130 -1.235149 10.190473 -0.000000 0.000000 0.000004 0.067139 -0.965890 7.951954 0.067144 -0.965867 7.951938 0.000001 -0.000001 0.000001 -0.761389 3.643571 10.438912 0.104617 -1.204185 9.932223 -0.000000 0.000000 0.000000 -2.759453 8.024688 17.655254 0.308101 -2.050680 17.086505 0.000002 -0.000002 0.000005 -0.000000 -0.000001 -0.000000 -0.000001 0.000000 -0.000001 -0.000001 0.000000 -0.000001 -0.000001 0.000000 -0.000001 -0.000001 0.000000 -0.000001 -0.000001 0.000000 -0.000000 -0.000001 0.000000 -0.000000 -0.000001 0.000000 -0.000001 -0.000001 0.000000 -0.000000 -0.000001 0.000000 -0.000000 0.000001 0.000000 -0.000000 0.000001 0.000000 -0.000000 -0.000000 0.000000 -0.000000 
-19.996407 71.945007 -9.544067 37.448595 3.972904 -3.825509 -0.000002 0.000000 -0.000000 -61.458548 -19.453221 23.081043 32.578554 10.382308 -2.964506 2.593303 6.236578 -26.134611 -0.000000 -0.000001 0.000000 -0.000000 -0.000001 0.000000 0.000000 -0.000001 0.000001 -68.994924 -0.661106 -16.731184 51.778691 -6.353132 -1.404622 -16.338427 -3.371348 17.812406 -0.000000 0.000000 0.000000 -0.000000 0.000000 0.000000 0.000000 -0.000000 -0.000001 11.356986 2.177944 0.796776 9.817438 2.025246 0.983092 9.811145 2.152149 0.886993 -0.715573 -2.246419 -1.135935 -34.116617 -13.747780 3.784626 0.000001 0.000000 -0.000000 0.000001 0.000000 -0.000000 0.000001 0.000000 -0.000000 1.416215 -22.973075 -8.880206 11.192765 -9.120332 -53.018763 -0.000006 -70.505830 -0.000017 10.038174 -7.077202 52.367139 -3.374860 1.231315 8.584189 5.793804 12.624803 1.716449 -0.000003 -0.000001 0.000004 -2.849394 -11.834700 -13.679890 0.167882 1.514197 -12.652663 -0.000005 -0.000001 -0.000002 -1.107503 -2.724905 -16.827240 0.358593 2.197128 -18.536794 -0.000002 -0.000004 0.000003 0.422361 2.378717 -20.134027 0.523082 2.637000 -22.435594 0.000002 0.000000 -0.000002 2.892625 9.303074 -19.220788 0.541217 -1.391000 -23.185704 0.000001 0.000000 -0.000000 -0.000003 0.000002 0.000001 3.187587 27.214298 7.729332 -2.835464 44.048412 16.782876 0.000002 15.523319 0.000003 -11.553904 -18.245693 1.205182 11.420382 -6.347030 -1.613749 -8.885683 -28.126231 -6.728601 -0.000001 -0.000004 -0.000001 1.580416 -10.229629 8.766637 0.108819 -1.227715 10.128407 0.000000 0.000001 0.000000 0.064973 -0.950252 7.822442 0.064960 -0.950273 7.822418 0.000001 0.000001 0.000002 -0.755254 3.690484 10.276190 0.101182 -1.184327 9.766749 -0.000002 -0.000000 0.000000 -2.755529 8.099337 17.520892 0.303160 -2.034584 16.948046 0.000001 -0.000001 0.000003 0.000001 -0.000000 -0.000000 0.000000 0.000000 0.000000 0.000000 0.000000 0.000000 0.000000 0.000000 0.000000 0.000000 0.000000 0.000000 0.000000 0.000000 -0.000000 0.000002 -0.000000 -0.000000 0.000000 0.000000 0.000000 0.000000 0.000000 -0.000000 0.000002 -0.000000 -0.000000 -0.000002 0.000000 -0.000000 -0.000002 0.000000 -0.000000 -0.000002 0.000000 -0.000000 
-19.616436 71.592056 -9.564968 39.057183 4.086765 -3.610971 -0.000001 0.000000 -0.000000 -64.825319 -18.422823 22.552048 34.457174 10.433730 -3.134170 1.993863 4.751933 -25.617188 -0.000000 0.000001 0.000000 -0.000000 0.000001 0.000000 -0.000000 -0.000001 -0.000001 -71.105486 -0.304265 -17.434275 52.471730 -6.041939 -1.614549 -16.462513 -3.466035 18.232196 0.000000 0.000000 -0.000000 0.000000 0.000000 -0.000000 0.000001 -0.000000 -0.000002 11.446674 2.295185 0.783368 9.969251 2.124027 1.135355 9.956449 2.298935 1.031304 -0.838445 -2.418141 -1.228874 -35.049027 -14.115567 3.169136 0.000001 -0.000000 0.000000 0.000001 -0.000000 0.000000 0.000001 -0.000000 0.000000 1.450535 -23.720936 -8.828588 11.826662 -9.065752 -52.805606 -0.000013 -71.719910 -0.000014 10.805688 -6.917938 53.874924 -3.512174 1.046280 8.763076 5.931035 12.976934 1.783638 0.000003 -0.000001 0.000000 -2.817160 -12.428205 -13.059486 0.147810 1.421869 -11.869175 0.000002 0.000001 -0.000002 -1.194130 -3.124428 -16.519644 0.345540 2.157839 -18.193252 -0.000003 -0.000002 0.000002 0.419692 2.371444 -20.069650 0.520982 2.631928 -22.389959 0.000000 0.000000 -0.000002 2.877111 9.281349 -19.164882 0.539868 -1.394170 -23.157422 -0.000001 -0.000000 -0.000000 0.000001 -0.000001 -0.000001 3.294681 27.536630 7.886912 -5.270282 43.242887 15.996353 -0.000011 15.853552 0.000014 -11.364531 -17.432033 -0.170963 11.427817 -6.338785 -1.622789 -8.905263 -28.148960 -6.722364 0.000001 -0.000001 -0.000000 1.578687 -10.245338 8.739110 0.108272 -1.224770 10.103842 -0.000001 -0.000000 0.000004 0.064136 -0.944072 7.771187 0.064116 -0.944067 7.771181 -0.000000 0.000001 -0.000002 -0.752783 3.709064 10.211789 0.099849 -1.176473 9.701261 -0.000001 -0.000000 0.000002 -2.753896 8.128869 17.467698 0.301215 -2.028191 16.893252 0.000001 -0.000001 -0.000002 -0.000000 -0.000000 0.000000 0.000000 -0.000000 -0.000000 0.000000 -0.000000 -0.000000 0.000000 -0.000000 -0.000000 0.000000 -0.000000 -0.000000 0.000000 -0.000000 -0.000000 0.000002 0.000000 0.000000 0.000000 -0.000000 -0.000000 0.000000 -0.000000 -0.000000 0.000002 0.000000 0.000000 0.000001 0.000000 -0.000000 0.000001 0.000000 -0.000000 -0.000001 0.000000 -0.000000 
-19.194992 71.220322 -9.558830 40.686870 4.330242 -3.369321 -0.000004 -0.000000 0.000000 -68.271689 -17.149181 21.904534 36.308432 10.496739 -3.183834 1.343935 3.174561 -25.036793 0.000000 0.000001 0.000000 0.000000 0.000001 -0.000000 0.000000 0.000001 -0.000000 -73.226731 0.038982 -18.346679 53.217962 -5.648963 -1.795680 -16.638769 -3.573521 18.662083 0.000000 0.000000 0.000000 0.000000 0.000000 0.000000 -0.000001 0.000001 0.000001 11.492375 2.358679 0.791943 10.064945 2.170634 1.237803 10.048265 2.372609 1.130297 -0.902486 -2.527068 -1.383376 -35.906578 -14.329185 2.536110 -0.000000 -0.000000 -0.000000 -0.000000 -0.000000 -0.000000 -0.000000 -0.000000 -0.000000 1.473620 -24.423862 -8.886952 12.773718 -9.396238 -52.694172 0.000029 -72.757477 0.000043 11.913187 -6.670310 56.007988 -3.647178 0.864208 8.938404 6.065773 13.323436 1.848943 0.000001 0.000001 -0.000005 -2.773172 -13.012700 -12.447471 0.129312 1.330799 -11.098663 -0.000000 0.000001 -0.000005 -1.275060 -3.518496 -16.217265 0.332933 2.119116 -17.855388 -0.000001 -0.000001 -0.000000 0.417076 2.364272 -20.006334 0.518917 2.626927 -22.345100 -0.000003 0.000001 -0.000000 2.861850 9.259786 -19.109957 0.538551 -1.397241 -23.129541 -0.000002 0.000002 -0.000002 0.000000 0.000000 0.000001 3.339811 27.785954 7.894898 -7.494358 42.669005 15.410840 -0.000001 16.135779 0.000009 -11.314867 -17.019363 -1.634172 11.432231 -6.333867 -1.628213 -8.916902 -28.162528 -6.718612 -0.000000 0.000002 0.000001 1.577615 -10.254723 8.722653 0.107956 -1.223010 10.089146 -0.000001 0.000000 0.000002 0.063622 -0.940385 7.740550 0.063604 -0.940379 7.740577 -0.000003 0.000001 -0.000000 -0.751281 3.720136 10.173314 0.099047 -1.171771 9.662126 -0.000002 0.000000 0.000000 -2.752884 8.146507 17.435922 0.300064 -2.024366 16.860513 0.000002 -0.000000 0.000004 0.000000 -0.000000 0.000000 -0.000002 0.000000 -0.000000 -0.000002 0.000000 -0.000000 -0.000002 0.000000 -0.000000 -0.000002 0.000000 -0.000000 -0.000002 0.000000 -0.000000 0.000000 0.000000 0.000000 -0.000002 0.000000 -0.000000 -0.000002 0.000000 -0.000000 0.000000 0.000000 0.000000 -0.000001 -0.000001 0.000000 -0.000001 -0.000001 0.000000 -0.000004 -0.000000 0.000000 
